<svg version="1.1" id="Layer_1" xmlns="http://www.w3.org/2000/svg" xmlns:xlink="http://www.w3.org/1999/xlink" x="0px" y="0px"
	 width="100%" viewBox="0 0 500 500" enable-background="new 0 0 500 500" xml:space="preserve">
<path fill="#000000" opacity="1.000000" stroke="none" 
	d="
M332.000000,501.000000 
	C221.333359,501.000000 111.166718,501.000000 1.000059,501.000000 
	C1.000039,334.333405 1.000039,167.666794 1.000020,1.000149 
	C167.666565,1.000099 334.333130,1.000099 500.999756,1.000050 
	C500.999847,167.666519 500.999847,334.333038 500.999939,500.999786 
	C444.833344,501.000000 388.666656,501.000000 332.000000,501.000000 
M355.917450,235.195679 
	C355.865509,233.793900 355.813599,232.392105 355.942902,230.260437 
	C355.887787,229.514709 355.832642,228.768967 355.941559,227.095795 
	C355.881317,219.061523 355.821075,211.027267 355.927734,202.505844 
	C355.873474,202.343002 355.819183,202.180161 355.922485,201.348587 
	C355.869934,200.896667 355.817383,200.444748 355.927795,199.504364 
	C355.872192,199.341995 355.816559,199.179611 355.917297,198.192459 
	C355.863983,196.798538 355.810699,195.404633 355.938660,193.087708 
	C355.941284,180.790161 355.977020,168.492493 355.933105,156.195114 
	C355.909882,149.697540 358.983002,145.260696 364.392853,141.869827 
	C366.925049,140.282669 369.332794,138.042236 370.946350,135.547684 
	C373.566132,131.497589 370.198547,125.293701 365.511078,125.044731 
	C357.452393,124.616699 349.385834,124.152199 341.320129,124.102280 
	C335.425537,124.065796 329.516998,125.033218 323.633331,124.872353 
	C319.010712,124.745949 316.458008,127.456207 316.378571,130.898895 
	C316.309082,133.910416 318.027924,138.333252 320.390137,139.760971 
	C326.284027,143.323151 331.624695,146.807587 333.067261,154.934784 
	C333.011749,195.276077 332.956238,235.617355 332.251038,275.769806 
	C331.224304,274.696960 330.031067,273.739227 329.196930,272.533203 
	C321.956635,262.064728 314.874146,251.486176 307.562714,241.068100 
	C297.840942,227.215607 287.889130,213.524612 278.160034,199.677200 
	C269.043427,186.701508 260.114471,173.594177 251.053391,160.579254 
	C244.408859,151.035370 238.028229,141.274261 230.811508,132.180115 
	C228.234390,128.932556 223.792603,126.075943 219.768509,125.305931 
	C212.716080,123.956451 205.330795,124.122742 198.081833,124.068085 
	C180.262451,123.933701 162.440979,123.983398 144.621078,124.085968 
	C141.203598,124.105644 137.641205,124.228752 134.432312,125.226265 
	C132.658157,125.777794 130.625809,128.040894 130.190033,129.882675 
	C128.841125,135.583832 130.430969,138.423203 136.028839,141.395004 
	C141.999985,144.564957 146.059189,148.769440 146.052307,156.074478 
	C146.001755,209.703217 146.017105,263.332031 146.039780,316.960815 
	C146.041824,321.779633 144.075653,325.408783 140.052444,328.012756 
	C137.489334,329.671722 134.952713,331.375519 132.458893,333.136658 
	C128.780884,335.733978 129.024567,339.558807 130.198700,343.041840 
	C131.213318,346.051666 133.908203,347.301910 137.338669,347.034607 
	C140.641296,346.777252 143.985718,346.991516 147.309494,347.082581 
	C157.066788,347.349945 166.824509,347.899841 176.578781,347.836121 
	C180.608185,347.809814 184.147369,345.299042 184.671432,341.136169 
	C184.994644,338.568909 184.073059,335.001129 182.341690,333.193298 
	C178.649811,329.338348 174.066727,326.336945 169.932281,322.445435 
	C169.635620,322.251068 169.338959,322.056702 169.021149,321.085724 
	C168.963562,320.055237 168.905975,319.024780 168.984879,317.066528 
	C168.934586,294.046417 168.884293,271.026337 168.994873,247.181152 
	C168.940659,245.785400 168.886444,244.389633 168.979050,242.106827 
	C169.005264,239.412552 169.031479,236.718262 169.798737,233.577866 
	C169.798737,215.189178 169.798737,196.800507 169.798737,177.273651 
	C171.789017,179.398712 173.055939,180.446274 173.947220,181.750549 
	C182.223877,193.862595 190.320618,206.098953 198.691650,218.144882 
	C214.110260,240.332321 229.716400,262.389343 245.173248,284.550354 
	C257.306915,301.946777 269.416595,319.361237 281.369659,336.881836 
	C286.714691,344.716553 293.834137,348.155365 303.295349,348.035706 
	C323.283600,347.782806 343.277130,347.938904 363.268494,347.946503 
	C367.022797,347.947937 370.424713,346.936035 371.766968,343.186371 
	C373.449677,338.485474 371.648926,334.306671 367.367706,332.089874 
	C359.564056,328.049225 355.690155,322.172272 355.825134,312.941986 
	C356.166016,289.629944 355.828827,266.307983 355.922180,242.199692 
	C355.869995,241.130035 355.817810,240.060364 355.945984,238.260101 
	C355.884888,237.515198 355.823761,236.770294 355.917450,235.195679 
z"/>
<path fill="#F5F4F4" opacity="1.000000" stroke="none" 
	d="
M333.219208,154.009705 
	C331.624695,146.807587 326.284027,143.323151 320.390137,139.760971 
	C318.027924,138.333252 316.309082,133.910416 316.378571,130.898895 
	C316.458008,127.456207 319.010712,124.745949 323.633331,124.872353 
	C329.516998,125.033218 335.425537,124.065796 341.320129,124.102280 
	C349.385834,124.152199 357.452393,124.616699 365.511078,125.044731 
	C370.198547,125.293701 373.566132,131.497589 370.946350,135.547684 
	C369.332794,138.042236 366.925049,140.282669 364.392853,141.869827 
	C358.983002,145.260696 355.909882,149.697540 355.933105,156.195114 
	C355.977020,168.492493 355.941284,180.790161 355.476715,193.673279 
	C354.680450,194.960190 354.057220,195.660309 354.054321,196.362991 
	C353.994659,210.887512 353.970215,225.412567 354.078369,239.936493 
	C354.085968,240.958450 355.176422,241.972351 355.763336,242.990005 
	C355.828827,266.307983 356.166016,289.629944 355.825134,312.941986 
	C355.690155,322.172272 359.564056,328.049225 367.367706,332.089874 
	C371.648926,334.306671 373.449677,338.485474 371.766968,343.186371 
	C370.424713,346.936035 367.022797,347.947937 363.268494,347.946503 
	C343.277130,347.938904 323.283600,347.782806 303.295349,348.035706 
	C293.834137,348.155365 286.714691,344.716553 281.369659,336.881836 
	C269.416595,319.361237 257.306915,301.946777 245.173248,284.550354 
	C229.716400,262.389343 214.110260,240.332321 198.691650,218.144882 
	C190.320618,206.098953 182.223877,193.862595 173.947220,181.750549 
	C173.055939,180.446274 171.789017,179.398712 169.798737,177.273651 
	C169.798737,196.800507 169.798737,215.189178 169.133957,233.515259 
	C168.201645,230.384003 167.934128,227.315338 167.666595,224.246674 
	C167.002686,229.526154 166.907349,234.772568 167.085373,240.009705 
	C167.119812,241.023056 168.222382,242.000092 168.832245,242.993881 
	C168.886444,244.389633 168.940659,245.785400 168.534180,247.704651 
	C167.715698,249.254898 167.048737,250.280746 167.045776,251.308533 
	C166.984940,272.371704 166.970398,293.435211 167.078613,314.497986 
	C167.084625,315.666412 168.232178,316.828979 168.848389,317.994293 
	C168.905975,319.024780 168.963562,320.055237 169.110291,321.698608 
	C169.336365,322.612823 169.552826,322.837585 169.848801,322.985779 
	C174.066727,326.336945 178.649811,329.338348 182.341690,333.193298 
	C184.073059,335.001129 184.994644,338.568909 184.671432,341.136169 
	C184.147369,345.299042 180.608185,347.809814 176.578781,347.836121 
	C166.824509,347.899841 157.066788,347.349945 147.309494,347.082581 
	C143.985718,346.991516 140.641296,346.777252 137.338669,347.034607 
	C133.908203,347.301910 131.213318,346.051666 130.198700,343.041840 
	C129.024567,339.558807 128.780884,335.733978 132.458893,333.136658 
	C134.952713,331.375519 137.489334,329.671722 140.052444,328.012756 
	C144.075653,325.408783 146.041824,321.779633 146.039780,316.960815 
	C146.017105,263.332031 146.001755,209.703217 146.052307,156.074478 
	C146.059189,148.769440 141.999985,144.564957 136.028839,141.395004 
	C130.430969,138.423203 128.841125,135.583832 130.190033,129.882675 
	C130.625809,128.040894 132.658157,125.777794 134.432312,125.226265 
	C137.641205,124.228752 141.203598,124.105644 144.621078,124.085968 
	C162.440979,123.983398 180.262451,123.933701 198.081833,124.068085 
	C205.330795,124.122742 212.716080,123.956451 219.768509,125.305931 
	C223.792603,126.075943 228.234390,128.932556 230.811508,132.180115 
	C238.028229,141.274261 244.408859,151.035370 251.053391,160.579254 
	C260.114471,173.594177 269.043427,186.701508 278.160034,199.677200 
	C287.889130,213.524612 297.840942,227.215607 307.562714,241.068100 
	C314.874146,251.486176 321.956635,262.064728 329.196930,272.533203 
	C330.031067,273.739227 331.224304,274.696960 332.843201,276.065918 
	C333.772797,277.207947 334.110260,278.053833 334.479950,278.980530 
	C334.747986,278.725220 334.917084,278.639404 334.917145,278.553467 
	C334.952087,238.230698 334.990845,197.907913 334.924438,157.585297 
	C334.922455,156.392502 333.812531,155.201523 333.219208,154.009705 
z"/>
<path fill="#FFFFFF" opacity="1.000000" stroke="none" 
	d="
M333.143250,154.472244 
	C333.812531,155.201523 334.922455,156.392502 334.924438,157.585297 
	C334.990845,197.907913 334.952087,238.230698 334.917145,278.553467 
	C334.917084,278.639404 334.747986,278.725220 334.479950,278.980530 
	C334.110260,278.053833 333.772797,277.207947 333.168030,276.160339 
	C332.956238,235.617355 333.011749,195.276077 333.143250,154.472244 
z"/>
<path fill="#FDFCFC" opacity="1.000000" stroke="none" 
	d="
M168.916626,317.530396 
	C168.232178,316.828979 167.084625,315.666412 167.078613,314.497986 
	C166.970398,293.435211 166.984940,272.371704 167.045776,251.308533 
	C167.048737,250.280746 167.715698,249.254898 168.453735,248.117188 
	C168.884293,271.026337 168.934586,294.046417 168.916626,317.530396 
z"/>
<path fill="#FFFFFF" opacity="1.000000" stroke="none" 
	d="
M355.842773,242.594849 
	C355.176422,241.972351 354.085968,240.958450 354.078369,239.936493 
	C353.970215,225.412567 353.994659,210.887512 354.054321,196.362991 
	C354.057220,195.660309 354.680450,194.960190 355.386078,194.134796 
	C355.810699,195.404633 355.863983,196.798538 355.701294,198.697601 
	C355.307587,199.543808 355.400787,199.807175 355.764832,199.992828 
	C355.817383,200.444748 355.869934,200.896667 355.705322,201.774902 
	C355.306915,202.540894 355.397797,202.804810 355.760803,202.992996 
	C355.821075,211.027267 355.881317,219.061523 355.651917,227.757507 
	C355.495422,229.276260 355.628540,230.133301 355.761658,230.990326 
	C355.813599,232.392105 355.865509,233.793900 355.635071,235.810318 
	C355.490356,237.280212 355.627991,238.135452 355.765656,238.990707 
	C355.817810,240.060364 355.869995,241.130035 355.842773,242.594849 
z"/>
<path fill="#FDFCFC" opacity="1.000000" stroke="none" 
	d="
M168.905640,242.550354 
	C168.222382,242.000092 167.119812,241.023056 167.085373,240.009705 
	C166.907349,234.772568 167.002686,229.526154 167.666595,224.246674 
	C167.934128,227.315338 168.201645,230.384003 168.763443,233.738327 
	C169.031479,236.718262 169.005264,239.412552 168.905640,242.550354 
z"/>
<path fill="#F5F4F4" opacity="1.000000" stroke="none" 
	d="
M355.852295,230.625381 
	C355.628540,230.133301 355.495422,229.276260 355.569916,228.221237 
	C355.832642,228.768967 355.887787,229.514709 355.852295,230.625381 
z"/>
<path fill="#F5F4F4" opacity="1.000000" stroke="none" 
	d="
M355.855835,238.625397 
	C355.627991,238.135452 355.490356,237.280212 355.557678,236.225174 
	C355.823761,236.770294 355.884888,237.515198 355.855835,238.625397 
z"/>
<path fill="#F5F4F4" opacity="1.000000" stroke="none" 
	d="
M355.846313,199.748596 
	C355.400787,199.807175 355.307587,199.543808 355.623077,199.110001 
	C355.816559,199.179611 355.872192,199.341995 355.846313,199.748596 
z"/>
<path fill="#F5F4F4" opacity="1.000000" stroke="none" 
	d="
M355.844269,202.749420 
	C355.397797,202.804810 355.306915,202.540894 355.626495,202.109253 
	C355.819183,202.180161 355.873474,202.343002 355.844269,202.749420 
z"/>
<path fill="#FDFCFC" opacity="1.000000" stroke="none" 
	d="
M169.890533,322.715607 
	C169.552826,322.837585 169.336365,322.612823 169.120865,322.086914 
	C169.338959,322.056702 169.635620,322.251068 169.890533,322.715607 
z"/>
</svg>