<svg version="1.1" id="Layer_1" xmlns="http://www.w3.org/2000/svg" xmlns:xlink="http://www.w3.org/1999/xlink" x="0px" y="0px"
	 width="100%" viewBox="0 0 496 496" enable-background="new 0 0 496 496" xml:space="preserve">
<path fill="#000000" opacity="1.000000" stroke="none" 
	d="
M188.886444,201.073975 
	C182.690720,192.195679 176.702087,183.610428 170.682480,174.980743 
	C168.608246,176.212265 169.340744,177.874100 169.339249,179.179871 
	C169.288177,224.012009 169.316849,268.844269 169.262512,313.676392 
	C169.255173,319.730988 171.862839,324.207611 176.677292,327.582092 
	C178.312744,328.728394 180.102570,329.667450 181.669678,330.895477 
	C184.398621,333.033905 185.512848,335.804626 184.513397,339.281586 
	C183.468506,342.916656 181.022888,345.149109 177.344147,345.192139 
	C163.847031,345.350006 150.346375,345.330872 136.848495,345.212646 
	C133.264084,345.181274 131.037155,342.806305 130.032318,339.530548 
	C129.076050,336.413177 129.911423,333.598236 132.358276,331.360077 
	C132.845810,330.914124 133.390350,330.469238 133.989761,330.216003 
	C144.685043,325.696838 146.984756,317.370056 146.880600,306.364899 
	C146.413834,257.037140 146.524384,207.701553 146.818756,158.371140 
	C146.872757,149.321991 144.174332,142.909897 135.874359,138.994263 
	C132.479813,137.392853 129.536240,135.144745 129.719131,130.727509 
	C129.914658,126.005280 133.017868,122.868645 138.280029,122.848595 
	C163.778931,122.751411 189.279160,122.695290 214.777161,122.875854 
	C222.191711,122.928360 227.965759,126.371803 232.341019,132.649033 
	C264.640808,178.989868 297.073975,225.237747 329.479431,271.504883 
	C330.221252,272.564026 330.783356,273.839050 332.269867,274.382599 
	C333.483337,272.763702 332.925476,270.892426 332.927521,269.167358 
	C332.971893,232.001678 332.802826,194.834534 333.106323,157.671204 
	C333.178925,148.779678 330.249908,142.599518 322.140320,138.818466 
	C318.297821,137.026932 315.533051,134.330460 316.501984,129.417877 
	C317.348450,125.126274 320.080566,122.982582 324.176636,122.936745 
	C337.173950,122.791260 350.174683,122.787247 363.172180,122.916733 
	C366.991974,122.954788 369.861359,124.926292 370.966003,128.796036 
	C372.089172,132.730591 370.580566,135.902359 367.176697,137.688019 
	C357.420013,142.806412 355.134247,151.017731 355.203491,161.439789 
	C355.532166,210.936447 355.424774,260.436707 355.281952,309.935150 
	C355.256439,318.781219 358.148895,325.413055 366.260956,329.554291 
	C370.247528,331.589417 372.971222,334.986542 371.810303,339.671661 
	C370.583374,344.623108 366.289307,345.325043 361.865204,345.321960 
	C341.365692,345.307556 320.866150,345.294159 300.366699,345.329437 
	C292.788147,345.342468 286.937378,342.314911 282.595978,336.053436 
	C251.455002,291.139587 220.266769,246.258499 188.886444,201.073975 
z"/>
</svg>